<svg xmlns="http://www.w3.org/2000/svg" width="98" height="31" viewBox="0 0 98 31" fill="none"><g clip-path="url(#clip0_1436_5039)"><path d="M0 0V31H19.4075V24.7282H7.35141V18.5302H16.51V12.2584H7.35141V6.27184H13.5228V0H0Z" fill="white"></path><path d="M35.2545 0.0510254C42.6904 0.0510254 46.5171 4.27471 46.5171 4.27471L43.1076 9.80014C43.1076 9.80014 39.7493 6.74319 35.5898 6.74319C29.8356 6.74319 27.1045 10.9669 27.1045 15.2721C27.1045 19.7047 30.043 24.2621 35.5898 24.2621C40.1256 24.2621 43.5709 20.581 43.5709 20.581L47.3515 25.9306C47.3515 25.9306 43.1076 30.944 35.2545 30.944C25.8425 30.944 19.5073 24.3003 19.5073 15.4377C19.5073 6.74319 26.2214 0.0510254 35.2545 0.0510254Z" fill="white"></path><path d="M59.1417 12.3068C61.4966 12.3068 62.9812 11.8126 62.9659 9.18111C62.9454 7.01832 62.1263 6.2821 58.4275 6.2821H56.5052V12.3068H59.1417ZM49.1589 0.0510254H59.0623C62.134 0.0510254 63.6007 0.262464 64.9035 0.761766C68.3002 2.05842 70.4452 4.37406 70.4452 8.72002C70.4452 11.8992 68.9325 14.8161 65.9504 16.3216V16.4031C66.3642 16.9808 66.742 17.5831 67.0818 18.2067L73.6628 30.9924H65.4718L59.3951 18.5838H56.5052V24.7614H49.1538L49.1589 0.0510254Z" fill="white"></path><path d="M73.2607 6.2718H80.6147V19.4498C80.6147 22.5857 82.4858 24.2594 85.6368 24.2594C88.7878 24.2594 90.6615 22.5857 90.6615 19.4498V0.0126953H98.0129V19.4498C98.0026 26.1802 93.2263 30.9439 85.6675 30.9439C78.0243 30.9439 73.2607 26.1802 73.2607 19.4498V6.2718Z" fill="white"></path></g><defs><clipPath id="clip0_1436_5039"><rect width="98" height="31" fill="white"></rect></clipPath></defs></svg>