<?xml version="1.0" encoding="UTF-8"?>
<svg id="a" data-name="b" xmlns="http://www.w3.org/2000/svg" width="7.5cm" height="3.2cm" viewBox="0 0 212.7 92.1">
  <g>
    <path d="m97,27.9l-6.1,17.6h-3.6l-6.1-17.6h3.3l4.6,13.4,4.6-13.4s3.3,0,3.3,0Z" fill="#f6f6f3" stroke-width="0"/>
    <path d="m101.8,26.2h.4v19.1h-3.1v-18.8s2.7-.3,2.7-.3Z" fill="#f6f6f3" stroke-width="0"/>
    <path d="m115.9,45.6c-1,0-2.1-.3-3.1-1.4-.5.4-1,.8-1.6,1-.6.3-1.2.4-2.1.4s-2.1-.2-3-.8-1.6-1.7-1.6-3.5.3-2.2,1-2.8,1.9-1,3.8-1,1.6,0,2.8,0v-.7c0-.9-.3-1.6-.8-2s-1.1-.6-1.9-.6c-1.2,0-2.6.4-3.7.9l-.7-2.7c1.4-.7,3.3-1.2,5-1.2s2.6.3,3.6,1c.9.7,1.5,1.8,1.5,3.5v5.1c0,.6.2,1.1.6,1.4.4.3.9.5,1.5.6l-1.4,2.6h0Zm-3.7-5.8c-1.4,0-2.6,0-3.3.2-.8.2-1.2.6-1.2,1.4s.8,1.7,1.9,1.7,1,0,1.6-.4c.6-.3,1-1,1-2v-.8h0Z" fill="#f6f6f3" stroke-width="0"/>
    <path d="m129.5,45.6c-1,0-2.1-.3-3.1-1.4-.5.4-1,.8-1.6,1-.6.3-1.2.4-2.1.4s-2.1-.2-3-.8-1.6-1.7-1.6-3.5.3-2.2,1-2.8,1.9-1,3.8-1,1.6,0,2.8,0v-.7c0-.9-.3-1.6-.8-2s-1.1-.6-1.9-.6c-1.2,0-2.6.4-3.7.9l-.7-2.7c1.4-.7,3.3-1.2,5-1.2s2.6.3,3.6,1c.9.7,1.5,1.8,1.5,3.5v5.1c0,.6.2,1.1.6,1.4.4.3.9.5,1.5.6l-1.4,2.6h0Zm-3.7-5.8c-1.4,0-2.6,0-3.3.2-.8.2-1.2.6-1.2,1.4s.8,1.7,1.9,1.7,1,0,1.6-.4c.6-.3,1-1,1-2v-.8h0Z" fill="#f6f6f3" stroke-width="0"/>
    <path d="m132.8,31.6h2.6l.3,1.1c1.3-.8,2.8-1.3,4.4-1.3s2.6.4,3.5,1.1c.9.8,1.5,2,1.5,3.7v9.1h-3.1v-8.2c0-1-.4-1.7-.9-2.2-.6-.4-1.3-.6-2.2-.6s-2.1.3-3,.8v10.1h-3.1v-13.7h0Z" fill="#f6f6f3" stroke-width="0"/>
    <path d="m159.8,45.3h-2.3l-.6-1c-1.1.8-2.2,1.3-3.7,1.3s-3.4-.8-4.4-2-1.4-2.8-1.4-4.5c0-2.6.8-4.5,2.1-5.8s3.1-1.9,5.2-1.9,1.3,0,2,0v-5l2.6-.3h.5v19.1h0Zm-3.1-10.8c-.8-.2-1.6-.3-2.2-.3-1.2,0-2.2.3-2.8,1.1-.7.7-1.1,1.8-1.1,3.2s.3,2.1.8,2.8c.6.8,1.4,1.3,2.5,1.3s2-.3,2.8-.8v-7.2h0Z" fill="#f6f6f3" stroke-width="0"/>
    <path d="m173.2,41.8v3c-1.2.6-2.7.8-3.9.8-1.9,0-3.7-.6-4.9-1.8s-2.1-3-2.1-5.3.8-4.1,1.9-5.3c1.1-1.2,2.7-1.8,4.2-1.8s1.2,0,2,.3,1.7.8,2.3,1.7c.7.9,1.1,2.3,1.1,4.2v2.1h-8.3c.2,1.1.8,1.9,1.6,2.3.7.5,1.6.7,2.5.7s2.4-.3,3.4-.9h.2Zm-2.1-4.6c0-1-.4-1.7-.9-2.2s-1.1-.7-1.7-.7-1.3.2-1.8.7-.9,1.2-1.1,2.2h5.5Z" fill="#f6f6f3" stroke-width="0"/>
    <path d="m184.5,35c-.8-.5-1.5-.7-2.3-.7s-1.9.4-2.8,1v10h-3.1v-13.7h2.6l.3,1.1c.9-.8,2.1-1.4,3.5-1.4s.9,0,1.4,0c.5,0,1,.2,1.3.4l-1,3.1h.1Z" fill="#f6f6f3" stroke-width="0"/>
    <path d="m197.2,41.8v3c-1.2.6-2.7.8-3.9.8-1.9,0-3.7-.6-4.9-1.8s-2.1-3-2.1-5.3.8-4.1,1.9-5.3c1.1-1.2,2.7-1.8,4.2-1.8s1.2,0,2,.3,1.7.8,2.3,1.7c.7.9,1.1,2.3,1.1,4.2v2.1h-8.3c.2,1.1.8,1.9,1.6,2.3.7.5,1.6.7,2.5.7s2.4-.3,3.4-.9h.2Zm-2.1-4.6c0-1-.4-1.7-.9-2.2s-1.1-.7-1.7-.7-1.3.2-1.8.7-.9,1.2-1.1,2.2h5.5Z" fill="#f6f6f3" stroke-width="0"/>
    <path d="m200.4,31.6h2.6l.3,1.1c1.3-.8,2.8-1.3,4.4-1.3s2.6.4,3.5,1.1c.9.8,1.5,2,1.5,3.7v9.1h-3.1v-8.2c0-1-.4-1.7-.9-2.2-.6-.4-1.3-.6-2.2-.6s-2.1.3-3,.8v10.1h-3.1v-13.7h0Z" fill="#f6f6f3" stroke-width="0"/>
    <path d="m91.8,55.7l-2.6,7.6h-1.5l-2.6-7.6h1.2l2.2,6.4,2.2-6.4h1.2,0Z" fill="#f6f6f3" stroke-width="0"/>
    <path d="m98.4,59.8h-4.7c0,1.6,1.1,2.6,2.5,2.6s1.4-.2,2.1-.5h0v1.1c-.8.4-1.5.5-2.2.5-2.2,0-3.5-1.6-3.5-4s1-3.9,3.3-3.9,2.6,1.5,2.6,3.2v1h-.1Zm-1.1-1c0-1.2-.3-2.2-1.5-2.2s-1.9.9-2.1,2.2h3.6Z" fill="#f6f6f3" stroke-width="0"/>
    <path d="m100.1,55.7h.8l.3.9c.6-.7,1.2-1,1.9-1s.4,0,.6,0,.4,0,.6.2l-.4,1c-.3,0-.7-.2-1-.2-.7,0-1.2.4-1.6,1v5.7h-1.1v-7.6h-.1Z" fill="#f6f6f3" stroke-width="0"/>
    <path d="m105.6,52.9h1.1c0,0,0,3.4,0,3.4.5-.4,1.2-.7,2-.7,2.1,0,3.3,1.8,3.3,3.9s-1.4,4-3.8,4-1.8-.2-2.5-.5v-10.1h0Zm1.1,9.3c.5.2,1,.2,1.5.2,1.6,0,2.6-1.3,2.6-3.1s-.7-2.7-2.3-2.7-1.4.3-1.8.8v4.7h0Z" fill="#f6f6f3" stroke-width="0"/>
    <path d="m119.1,59.8h-4.7c0,1.6,1.1,2.6,2.5,2.6s1.4-.2,2.1-.5h0v1.1c-.8.4-1.5.5-2.2.5-2.2,0-3.5-1.6-3.5-4s1-3.9,3.3-3.9,2.6,1.5,2.6,3.2v1h-.1Zm-1.1-1c0-1.2-.3-2.2-1.5-2.2s-1.9.9-2.1,2.2h3.6Z" fill="#f6f6f3" stroke-width="0"/>
    <path d="m126.1,59.8h-4.7c0,1.6,1.1,2.6,2.5,2.6s1.4-.2,2.1-.5h0v1.1c-.8.4-1.5.5-2.2.5-2.2,0-3.5-1.6-3.5-4s1-3.9,3.3-3.9,2.6,1.5,2.6,3.2v1h-.1Zm-1.1-1c0-1.2-.3-2.2-1.5-2.2s-1.9.9-2.1,2.2h3.6Z" fill="#f6f6f3" stroke-width="0"/>
    <path d="m128.8,52.7h0v10.6h-1.1v-10.5h1.1Z" fill="#f6f6f3" stroke-width="0"/>
    <path d="m137,63.3h-.7l-.2-.7c-.6.5-1.3.8-2.1.8s-1.8-.5-2.4-1.2c-.6-.7-.9-1.7-.9-2.9s.3-2,.9-2.7c.6-.7,1.6-1.1,2.9-1.1s1,0,1.4.2v-2.9h1.1c0,0,0,10.5,0,10.5Zm-1.1-6.4c-.5-.2-1-.3-1.5-.3-.8,0-1.4.2-1.9.7s-.7,1.2-.7,2.2.2,1.5.5,2c.4.5.9.9,1.8.9s1.4-.3,1.8-.8v-4.7h0Z" fill="#f6f6f3" stroke-width="0"/>
    <path d="m139.4,53.6c0-.4.3-.8.8-.8s.8.3.8.8-.4.8-.8.8-.8-.4-.8-.8Zm.2,2.1h1.1v7.6h-1.1v-7.6Z" fill="#f6f6f3" stroke-width="0"/>
    <path d="m143.3,55.7h.8l.2.7c.3-.2.7-.4,1.1-.6.4-.2.8-.3,1.2-.3.7,0,1.4.2,1.9.6.5.5.8,1.2.8,2.2v4.9h-1.1v-4.8c0-.7-.2-1.2-.5-1.5s-.7-.4-1.2-.4-.7,0-1.1.2c-.3,0-.7.3-1,.5v6h-1.1v-7.6h0Z" fill="#f6f6f3" stroke-width="0"/>
    <path d="m154.5,61.7c1,0,1.8.2,2.3.6.5.4.7.9.7,1.5s-.5,1.6-1.2,2.1-1.7.9-2.7.9-1.6-.3-2.1-.7c-.5-.4-.8-1-.8-1.7s.3-1.3.9-1.9c-.2,0-.4-.3-.5-.5s-.2-.5-.2-.7c0-.4.2-.9.5-1.3-.2-.2-.4-.5-.5-.8s-.2-.7-.2-1c0-.7.3-1.4.8-1.8.5-.5,1.2-.7,2-.7s1.1,0,1.5.4c.3-.2.7-.4,1-.6.3,0,.7-.2.9-.2l.3,1c-.4,0-.9.2-1.4.5.3.4.4.9.4,1.4s-.3,1.4-.8,1.9-1.2.8-2,.8-1,0-1.4-.3c-.2.2-.3.4-.3.6,0,.4.3.7.9.7h1.4l.5-.2Zm-1.9,1c-.4.5-.7,1.1-.7,1.6s.1.8.4,1.1.8.4,1.4.4,1.4-.2,1.9-.6.7-.8.7-1.3-.3-.9-.9-1c-.5-.2-1.3-.2-2.1-.2h-.9.2Zm1.2-6.1c-.6,0-1,.2-1.3.5s-.4.7-.4,1.1.2.8.4,1.1.7.5,1.3.5,1-.2,1.3-.5.4-.7.4-1.1-.1-.8-.4-1.1c-.3-.3-.7-.5-1.3-.5Z" fill="#f6f6f3" stroke-width="0"/>
    <path d="m173.5,55.7l-2.4,7.6h-1.4l-1.7-5.8-1.7,5.8h-1.4l-2.4-7.6h1.1l2,6.3,1.9-6.3h1l1.9,6.3,2-6.3h1.1,0Z" fill="#f6f6f3" stroke-width="0"/>
    <path d="m180.2,59.8h-4.7c.1,1.6,1.1,2.6,2.5,2.6s1.4-.2,2.1-.5h0v1.1c-.8.4-1.5.5-2.2.5-2.2,0-3.5-1.6-3.5-4s1-3.9,3.3-3.9,2.6,1.5,2.6,3.2v1h-.1Zm-1.1-1c0-1.2-.3-2.2-1.5-2.2s-1.9.9-2.1,2.2h3.6Z" fill="#f6f6f3" stroke-width="0"/>
    <path d="m181.9,55.7h.8l.3.9c.6-.7,1.2-1,1.9-1s.4,0,.6,0,.4,0,.6.2l-.4,1c-.3,0-.7-.2-1-.2-.7,0-1.2.4-1.6,1v5.7h-1.1v-7.6h-.1Z" fill="#f6f6f3" stroke-width="0"/>
    <path d="m192.7,63.5c-.4,0-.8-.3-1.3-.6-.4-.3-.9-.8-1.3-1.3-.4-.5-.8-1-1.1-1.3-.1-.2-.2-.4-.3-.5,0,0-.1-.2-.2-.3v3.9h-1.1v-10.4l1.1-.2h0v6.6l3-3.6h1.4l-3.1,3.7c0,.2.3.5.6.9.4.4.8.9,1.3,1.3.5.4,1,.7,1.3.8l-.5,1h.2Z" fill="#f6f6f3" stroke-width="0"/>
    <path d="m193.7,55.7h.8v-1.4l1.1-.2h0v1.6h2.1v1.1h-2.1v3.7c0,.7.2,1.2.4,1.5s.6.4,1,.4.9-.2,1.4-.5l.3,1c-.6.3-1.3.5-1.9.5s-1.2-.2-1.7-.7c-.4-.5-.7-1.2-.7-2.3v-3.7h-.8v-1.1h0Z" fill="#f6f6f3" stroke-width="0"/>
  </g>
  <g>
    <path d="m42.3,27.9c-.9,0-2.5,1.3-2.6,0,0-.8,1-.3,1.4-.6.2,0,.3-.7,0-.8-.3,0-.8-.2-1.2,0-.5.2-.8.6-1.1.9-.3.2-.4,0-.5.2-.8,2.5,4.3,3.4,3.9.3h0Z" fill="#f6f6f3" stroke-width="0"/>
    <path d="m51.2,0H0v92.1h82.6L51.2,0Zm-6.8,33.5c-.9.3-1.6-1.3-.7-1.7-.4-1.1-2.5-.8-4.4-1.4-2.6-.8-3.3-4.2-4.4-4.4,10.6-2.4,10.2,5.5,9.5,7.5Zm-27.8-8.4c.3-4.2,4.1-5.9,5-6.5,0,0,1.7-1.2,1.9-2.4,0,0,1.8,4.4-2.3,6.9-2,1.3-3.4,2.8-4.4,4.8-.3-1.1-.4-2-.3-2.8h0Zm1.8,5.5c7.9-6.6,6.3-8,6.3-8,0,0,1.1,0,1.8,1.2.2.4,1.8,2.7-4.7,8.1-6.5,5.3-4.4,9.1-4.4,9.1,0,0-6.9-3.8,1-10.5h0Zm2.2,29.3c-1.3.8.6-.7-1.1-4.8-1-2.3-1.8-4.8-1.2-8.8.3-1.4,1.2-3.9,2-5.4,1.6-2.9,6.8-7.5,7-10.9.4,1.5,1.2,4.8-1,8-1.8,2.7-4,6.5-4.5,10.1-.2,1.9,0,3.7,0,5.3,0,2,.4,5.1-1.3,6.5h0Zm14.9,12.9c-3.3-4.2-15-5.9-8.9-23.7,2.3-6.8,1.8-9.5,1.8-9.5,0,0,3.1,2.4.9,12.1-1.5,6.7.2,11.4,2.2,13.5,5.3,5.8,4,7.6,4,7.6Zm15.9,2c-5.6,0-10.8-5.9-11.5-7.7-.2-.7-.4-2.3-.4-2.6,0-1.3-.2-2.7-.3-4.5-.2-3-2.8-6.3-3.8-8.5-.3-.8-.9-2.5-1.2-3.2-.8-2.2-2-9-2.1-9.6-3.2-15.3-4-17.1-4-17.1,0,0,1.1-.5,3.5,5.8.6,1.6,1.4,4.1,1.8,5.8.4,1.8,1,3.8,1.5,5.9.5,2,.8,4,1.3,6,.8,3.2,3.1,5.6,3.8,8.9.4,1.8,1.5,2.9,2.6,3.7,2.5,1.7,6.9-.6,7.5-3,0-.3,0-1.1,0-1.4-.2-1.4-.7-2.3-2-2.9-.3,0-1.4-.6-2.2-1.1-1-.6-3.2-3.5-1.6-4.3.8-.4,1.9,1.3,2.9,1.4,1.3,0,2.2-1.5,4.3,0v14.3c-1.4,0-3-.8-5.7-.6-2.4.2-3.8,1.8-4.5,3.7-.4.9-.7,3.1-.7,3.2,0,.3,5.3,3.4,10.9,3.4v4.5h0Z" fill="#f6f6f3" stroke-width="0"/>
  </g>
</svg>